<svg xmlns="http://www.w3.org/2000/svg" width="57" height="56">
    <path fill="#D0D941" fill-rule="evenodd" d="M28.978 0C20.06 0 12.138 4.125 6.996 10.548 3.163 15.336.875 21.401.875 27.987c0 6.593 2.293 12.648 6.134 17.421 5.142 6.391 13.058 10.483 21.969 10.483 15.485 0 28.021-12.485 28.021-27.904C56.999 12.566 44.463 0 28.978 0zm5.277 3.118c1.758.373 3.45.928 5.055 1.644 1.631.725 3.171 1.619 4.601 2.654 1.438 1.044 2.761 2.232 3.95 3.544l-5.273 4.727c-.855-.947-1.809-1.805-2.846-2.556-1.029-.747-2.14-1.391-3.316-1.914-1.157-.517-2.377-.918-3.645-1.188-.009-.002-.017-.004-.026-.006l1.5-6.905zm-23.31 6.861c.954-.952 1.974-1.821 3.047-2.598 1.447-1.052 2.991-1.942 4.61-2.657 1.593-.705 3.259-1.245 4.975-1.606.029-.008.106-.014.135-.019l1.52 6.916v.004c0 .002-.069.004-.079.006-1.254.266-2.488.662-3.631 1.173-1.176.523-2.302 1.167-3.333 1.918-1.035.749-1.995 1.609-2.851 2.555l-.007-.002-5.291-4.739c.292-.324.594-.639.905-.951zM4.731 35.744c0-.002-.002-.005-.002-.008-.54-1.659-.911-3.393-1.094-5.182-.088-.854-.134-1.721-.134-2.597 0-.911.048-1.814.142-2.706.185-1.777.555-3.513 1.099-5.186.002-.004.002-.008.004-.011l6.758 2.173.006.002.002.001c-.002.008-.006.016-.008.023-.393 1.196-.666 2.447-.801 3.738-.071.644-.107 1.302-.107 1.966 0 .627.032 1.249.095 1.859.132 1.287.397 2.535.783 3.728.002.006.004.01.006.016l-6.749 2.184zm19.614 13.735l-.122.674-.556 2.705h-.002c-1.764-.553-3.459-.987-5.068-1.703-1.635-.727-3.179-1.651-4.611-2.689-1.434-1.04-2.757-2.242-3.942-3.554-.004-.006-.01-.025-.013-.031l5.269-4.742h.002c.009 0 .017.027.026.036.85.94 1.801 1.795 2.83 2.539 1.032.751 2.145 1.322 3.325 1.845 1.161.517 2.385 1.11 3.656 1.11h.004l-.798 3.81zm-11.18-21.492c0-8.649 7.046-15.747 15.813-15.747 8.684 0 15.731 7.098 15.731 15.747 0 8.649-7.047 15.665-15.731 15.665-8.767 0-15.813-7.016-15.813-15.665zm30.767 20.432c-1.429 1.036-2.974 1.928-4.606 2.656-1.608.715-3.301 1.27-5.063 1.645l-1.476-6.943c1.27-.27 2.491-.661 3.65-1.214h.002c1.18-.553 2.291-1.14 3.322-1.889 1.037-.747 1.991-1.588 2.845-2.533l.011-.005 5.271 4.73c-1.189 1.316-2.516 2.508-3.956 3.553zm9.263-12.677l-6.748-2.184c.002-.008.005-.017.007-.025.388-1.19.653-2.435.785-3.719.063-.61.095-1.23.095-1.857 0-.664-.036-1.322-.106-1.966-.138-1.291-.411-2.54-.806-3.736l6.749-2.184c.548 1.659.926 3.393 1.116 5.182.096.888.144 1.791.144 2.704 0 .876-.046 1.743-.134 2.597-.183 1.791-.557 3.526-1.102 5.188z"/>
</svg>