<svg xmlns="http://www.w3.org/2000/svg" width="47" height="56">
    <path fill="#F33" fill-rule="evenodd" d="M40.398 37.766c-2.883 3.595-7.319 5.902-12.296 5.902-8.766 0-15.812-7.017-15.812-15.666 0-8.648 7.046-15.747 15.812-15.747 4.976 0 9.411 2.333 12.294 5.95.319-1.02.688-2.027 1.108-3.019 1.271-2.997 2.961-5.76 5.039-8.246C41.617 2.631 35.167.015 28.102.015 12.536.015 0 12.581 0 28.002c0 15.42 12.536 27.904 28.102 27.904 7.069 0 13.522-2.602 18.45-6.897-2.081-2.48-3.774-5.238-5.046-8.231-.42-.989-.789-1.994-1.108-3.012z"/>
</svg>