<svg xmlns="http://www.w3.org/2000/svg" viewBox="0 0 99.45 55.89">
  <path fill="#d0d941" fill-rule="evenodd" d="M71.43 0a28.07 28.07 0 0 0-28.1 27.99c0 6.59 2.3 12.64 6.13 17.42a28.1 28.1 0 0 0 21.97 10.48A27.95 27.95 0 0 0 99.45 28 28.02 28.02 0 0 0 71.43 0zm5.28 3.12a25.29 25.29 0 0 1 9.65 4.3 25.73 25.73 0 0 1 3.95 3.54l-5.27 4.73a18.29 18.29 0 0 0-9.8-5.66h-.03l1.5-6.91zM53.4 9.98a25.44 25.44 0 0 1 12.63-6.86l.14-.02L67.69 10l-.08.02a18.2 18.2 0 0 0-9.82 5.64l-5.3-4.74.9-.95zm-6.22 25.76a24.93 24.93 0 0 1-1.08-10.49 25.2 25.2 0 0 1 1.1-5.19l6.76 2.17v.02a17.95 17.95 0 0 0-.82 7.57c.14 1.28.4 2.53.79 3.72v.02l-6.75 2.18zM66.8 49.48l-.12.67-.56 2.7c-1.77-.55-3.46-.98-5.07-1.7a25.67 25.67 0 0 1-8.55-6.24l-.02-.03 5.27-4.74.03.03c.85.94 1.8 1.8 2.83 2.54 1.03.75 2.15 1.33 3.33 1.85 1.16.52 2.38 1.1 3.65 1.1l-.8 3.82zm-11.18-21.5a15.77 15.77 0 0 1 31.54 0 15.7 15.7 0 0 1-15.73 15.67A15.72 15.72 0 0 1 55.62 28zm30.77 20.44a25.66 25.66 0 0 1-9.67 4.3l-1.48-6.94a20 20 0 0 0 6.97-3.1 18 18 0 0 0 2.85-2.54h.01l5.27 4.73a25.59 25.59 0 0 1-3.95 3.55zm9.26-12.68l-6.75-2.18v-.03a17.9 17.9 0 0 0 .78-7.54 18 18 0 0 0-.8-3.73l6.74-2.19a24.9 24.9 0 0 1 1.13 10.48c-.18 1.8-.56 3.53-1.1 5.2z"/>
  <path fill="#fff" fill-rule="evenodd" d="M40.4 37.75a15.73 15.73 0 0 1-12.3 5.9A15.72 15.72 0 0 1 12.3 28c0-8.65 7.05-15.75 15.81-15.75a15.7 15.7 0 0 1 12.3 5.95 33.02 33.02 0 0 1 6.14-11.27A27.91 27.91 0 0 0 28.1 0 28.04 28.04 0 0 0 0 27.99a27.97 27.97 0 0 0 28.1 27.9c7.07 0 13.52-2.6 18.45-6.9a32.62 32.62 0 0 1-6.15-11.24z"/>
</svg>